<svg width="35" height="35" viewBox="0 0 35 35" fill="none" xmlns="http://www.w3.org/2000/svg">
<path d="M35 17.5C35 27.1644 27.1644 35 17.5 35C7.83556 35 0 27.1644 0 17.5C0 7.83556 7.83556 0 17.5 0C27.1665 0 35 7.83556 35 17.5Z" fill="#2081E2"/>
<path d="M8.63365 18.088L8.70914 17.9693L13.2616 10.8476C13.3281 10.7433 13.4845 10.7541 13.5349 10.8674C14.2954 12.5718 14.9517 14.6916 14.6442 16.0114C14.513 16.5544 14.1534 17.2897 13.7488 17.9693C13.6967 18.0682 13.6392 18.1653 13.578 18.2588C13.5493 18.302 13.5007 18.3271 13.4486 18.3271H8.76668C8.64082 18.3271 8.56711 18.1905 8.63365 18.088Z" fill="white"/>
<path d="M28.9256 19.4113V20.5387C28.9256 20.6034 28.8861 20.6609 28.8285 20.6861C28.4762 20.8371 27.2697 21.3909 26.7681 22.0885C25.4879 23.8703 24.5099 26.418 22.3235 26.418H13.2024C9.96974 26.418 7.3501 23.7894 7.3501 20.5458V20.4416C7.3501 20.3553 7.4202 20.2852 7.50651 20.2852H12.5912C12.6918 20.2852 12.7655 20.3786 12.7566 20.4775C12.7206 20.8083 12.7817 21.1464 12.9382 21.4538C13.2402 22.0669 13.8659 22.4499 14.5419 22.4499H17.0591V20.4847H14.5707C14.4431 20.4847 14.3676 20.3373 14.4413 20.233C14.4682 20.1916 14.4988 20.1485 14.5312 20.1C14.7667 19.7656 15.1029 19.2459 15.4373 18.6544C15.6657 18.2553 15.8868 17.8291 16.0648 17.4012C16.1008 17.3239 16.1295 17.2448 16.1583 17.1675C16.2068 17.0308 16.2572 16.9032 16.2932 16.7755C16.3291 16.6676 16.3579 16.5544 16.3866 16.4483C16.4712 16.0851 16.5071 15.7003 16.5071 15.3012C16.5071 15.1448 16.4999 14.9812 16.4856 14.8247C16.4783 14.6539 16.4568 14.4831 16.4352 14.3123C16.4208 14.1613 16.3939 14.012 16.3651 13.8556C16.3291 13.6273 16.2788 13.4008 16.2212 13.1724L16.2015 13.0861C16.1583 12.9297 16.1224 12.7805 16.072 12.624C15.93 12.1332 15.7664 11.6549 15.5938 11.2072C15.5308 11.0292 15.4589 10.8584 15.387 10.6876C15.2809 10.4305 15.173 10.1968 15.0741 9.97563C15.0238 9.87494 14.9807 9.78323 14.9375 9.68975C14.889 9.58366 14.8386 9.47758 14.7883 9.37692C14.7523 9.29961 14.7109 9.22768 14.6822 9.15575L14.3747 8.5876C14.3316 8.51028 14.4035 8.41858 14.488 8.44196L16.4118 8.96336H16.4172C16.4208 8.96336 16.4226 8.96518 16.4244 8.96518L16.6779 9.03528L16.9566 9.11442L17.0591 9.14316V7.99967C17.0591 7.44768 17.5014 7 18.048 7C18.3213 7 18.5694 7.11147 18.7474 7.29305C18.9254 7.47467 19.0368 7.72278 19.0368 7.99967V9.69696L19.2418 9.75446C19.258 9.75989 19.2742 9.76707 19.2886 9.77785C19.3389 9.81561 19.4108 9.87133 19.5025 9.93968C19.5744 9.99719 19.6518 10.0673 19.7452 10.1393C19.9304 10.2885 20.1516 10.4809 20.3943 10.702C20.459 10.7577 20.522 10.8153 20.5795 10.8728C20.8924 11.1641 21.243 11.5057 21.5774 11.8833C21.6709 11.9894 21.7626 12.0972 21.8561 12.2105C21.9495 12.3256 22.0485 12.4388 22.1347 12.5521C22.248 12.7031 22.3703 12.8596 22.4764 13.0232C22.5267 13.1005 22.5842 13.1796 22.6328 13.2569C22.7694 13.4637 22.8899 13.6776 23.005 13.8916C23.0535 13.9905 23.1038 14.0983 23.147 14.2044C23.2746 14.4903 23.3753 14.7816 23.4401 15.0729C23.4598 15.1358 23.4742 15.2041 23.4814 15.2653V15.2796C23.503 15.3659 23.5102 15.4576 23.5174 15.5511C23.5461 15.8496 23.5318 16.148 23.467 16.4483C23.4401 16.576 23.4041 16.6964 23.361 16.8241C23.3178 16.9463 23.2746 17.074 23.2189 17.1944C23.1111 17.4443 22.9834 17.6943 22.8323 17.928C22.7838 18.0143 22.7263 18.106 22.6687 18.1923C22.6058 18.284 22.5411 18.3703 22.4835 18.4548C22.4044 18.5627 22.3199 18.676 22.2336 18.7767C22.1563 18.8827 22.0772 18.9888 21.9909 19.0823C21.8704 19.2243 21.7554 19.3592 21.6349 19.4887C21.563 19.5732 21.4857 19.6595 21.4066 19.7368C21.3293 19.8231 21.2501 19.9004 21.1782 19.9723C21.0578 20.0928 20.9571 20.1862 20.8726 20.2636L20.6748 20.4452C20.646 20.4703 20.6083 20.4847 20.5687 20.4847H19.0368V22.4499H20.9643C21.3958 22.4499 21.8057 22.2971 22.1365 22.0166C22.2498 21.9177 22.7443 21.4898 23.3286 20.8443C23.3484 20.8227 23.3736 20.8066 23.4023 20.7994L28.7261 19.2603C28.825 19.2316 28.9256 19.307 28.9256 19.4113Z" fill="white"/>
</svg>
