<svg width="22" height="25" viewBox="0 0 22 25" fill="none" xmlns="http://www.w3.org/2000/svg">
<path d="M19.4229 0H2.57714C1.15657 0 0 1.14832 0 2.57123V19.4465C0 20.8694 1.15657 22.0178 2.57714 22.0178H16.8331L16.1669 19.7086L17.776 21.194L19.2971 22.5919L22 24.9634V2.57123C22 1.14832 20.8434 0 19.4229 0ZM14.5703 16.3011C14.5703 16.3011 14.1177 15.7644 13.7406 15.2901C15.3874 14.8283 16.016 13.8048 16.016 13.8048C15.5006 14.1418 15.0103 14.3789 14.5703 14.5412C13.9417 14.8033 13.3383 14.9781 12.7474 15.0779C11.5406 15.3026 10.4343 15.2402 9.49143 15.0654C8.77486 14.9281 8.15886 14.7284 7.64343 14.5287C7.35429 14.4164 7.04 14.2791 6.72571 14.1043C6.688 14.0794 6.65029 14.0669 6.61257 14.0419C6.58743 14.0295 6.57486 14.017 6.56229 14.0045C6.336 13.8797 6.21029 13.7923 6.21029 13.7923C6.21029 13.7923 6.81371 14.7908 8.41029 15.2651C8.03314 15.7394 7.568 16.3011 7.568 16.3011C4.78971 16.2138 3.73371 14.4039 3.73371 14.4039C3.73371 10.3848 5.544 7.12706 5.544 7.12706C7.35429 5.77904 9.07657 5.81648 9.07657 5.81648L9.20229 5.96626C6.93943 6.61531 5.896 7.60137 5.896 7.60137C5.896 7.60137 6.17257 7.45159 6.63771 7.2394C7.98286 6.65276 9.05143 6.49049 9.49143 6.45305C9.56686 6.44057 9.62971 6.42808 9.70514 6.42808C10.472 6.32823 11.3394 6.30327 12.2446 6.40312C13.4389 6.54042 14.7211 6.88991 16.0286 7.60137C16.0286 7.60137 15.0354 6.66524 12.8983 6.01619L13.0743 5.81648C13.0743 5.81648 14.7966 5.77904 16.6069 7.12706C16.6069 7.12706 18.4171 10.3848 18.4171 14.4039C18.4171 14.4039 17.3486 16.2138 14.5703 16.3011ZM8.72457 10.4722C8.008 10.4722 7.44229 11.0962 7.44229 11.8576C7.44229 12.619 8.02057 13.2431 8.72457 13.2431C9.44114 13.2431 10.0069 12.619 10.0069 11.8576C10.0194 11.0962 9.44114 10.4722 8.72457 10.4722ZM13.3131 10.4722C12.5966 10.4722 12.0309 11.0962 12.0309 11.8576C12.0309 12.619 12.6091 13.2431 13.3131 13.2431C14.0297 13.2431 14.5954 12.619 14.5954 11.8576C14.5954 11.0962 14.0297 10.4722 13.3131 10.4722Z" fill="#7289DA"/>
</svg>
