<svg width="44" height="44" viewBox="0 0 44 44" fill="none" xmlns="http://www.w3.org/2000/svg">
<path d="M22 44C34.1503 44 44 34.1503 44 22C44 9.84974 34.1503 0 22 0C9.84974 0 0 9.84974 0 22C0 34.1503 9.84974 44 22 44Z" fill="#2046F5"/>
<path fill-rule="evenodd" clip-rule="evenodd" d="M23.65 17.7375L28.6 14.85V20.625L23.65 17.7375ZM28.6 30.1125L22 33.9625L15.4 30.1125V23.375L22 27.225L28.6 23.375V30.1125ZM15.4 14.85L20.35 17.7375L15.4 20.625V14.85ZM22.825 19.1125L27.775 22L22.825 24.8875V19.1125ZM21.175 24.8875L16.225 22L21.175 19.1125V24.8875ZM27.775 13.475L22 16.775L16.225 13.475L22 10.0375L27.775 13.475ZM13.75 12.925V30.9375L22 35.6125L30.25 30.9375V12.925L22 8.25L13.75 12.925Z" fill="white"/>
</svg>
