<svg width="18" height="19" viewBox="0 0 18 19" fill="none" xmlns="http://www.w3.org/2000/svg">
<path fill-rule="evenodd" clip-rule="evenodd" d="M6.89674 16.1332C6.89674 16.3037 6.96446 16.4672 7.08502 16.5878C7.20557 16.7083 7.36908 16.776 7.53957 16.776H16.0712C16.5826 16.776 17.0732 16.5729 17.4348 16.2112C17.7965 15.8495 17.9997 15.359 17.9997 14.8475V1.99098C17.9997 1.47952 17.7965 0.989001 17.4348 0.62734C17.0732 0.265679 16.5826 0.0625 16.0712 0.0625H3.21462C2.70315 0.0625 2.21263 0.265679 1.85097 0.62734C1.48931 0.989001 1.28613 1.47952 1.28613 1.99098V10.5226C1.28613 10.6931 1.35386 10.8566 1.47441 10.9771C1.59497 11.0977 1.75847 11.1654 1.92896 11.1654C2.09945 11.1654 2.26296 11.0977 2.38351 10.9771C2.50406 10.8566 2.57179 10.6931 2.57179 10.5226V1.99098C2.57179 1.8205 2.63952 1.65699 2.76007 1.53644C2.88062 1.41588 3.04413 1.34816 3.21462 1.34816H16.0712C16.2417 1.34816 16.4052 1.41588 16.5257 1.53644C16.6463 1.65699 16.714 1.8205 16.714 1.99098V14.8475C16.714 15.018 16.6463 15.1815 16.5257 15.3021C16.4052 15.4227 16.2417 15.4904 16.0712 15.4904H7.53957C7.36908 15.4904 7.20557 15.5581 7.08502 15.6787C6.96446 15.7992 6.89674 15.9627 6.89674 16.1332Z" fill="#36FF8C"/>
<path fill-rule="evenodd" clip-rule="evenodd" d="M12.8574 5.84797C12.8574 5.67748 12.7896 5.51397 12.6691 5.39342C12.5485 5.27287 12.385 5.20514 12.2145 5.20514H5.78627C5.61578 5.20514 5.45227 5.27287 5.33172 5.39342C5.21116 5.51397 5.14344 5.67748 5.14344 5.84797C5.14344 6.01846 5.21116 6.18196 5.33172 6.30252C5.45227 6.42307 5.61578 6.4908 5.78627 6.4908H10.6628L0.188518 16.9637C0.067812 17.0845 0 17.2482 0 17.4189C0 17.5896 0.067812 17.7533 0.188518 17.874C0.309224 17.9947 0.472936 18.0625 0.64364 18.0625C0.814344 18.0625 0.978056 17.9947 1.09876 17.874L11.5717 7.39975V12.2762C11.5717 12.4467 11.6394 12.6102 11.76 12.7308C11.8806 12.8513 12.0441 12.9191 12.2145 12.9191C12.385 12.9191 12.5485 12.8513 12.6691 12.7308C12.7896 12.6102 12.8574 12.4467 12.8574 12.2762V5.84797Z" fill="#36FF8C"/>
</svg>
