<svg width="40" height="40" viewBox="0 0 40 40" fill="none" xmlns="http://www.w3.org/2000/svg">
<path d="M20 40C31.0457 40 40 31.0457 40 20C40 8.9543 31.0457 0 20 0C8.9543 0 0 8.9543 0 20C0 31.0457 8.9543 40 20 40Z" fill="#FF060A"/>
<path d="M33.3015 16.7583C32.0909 15.6566 30.4162 13.9742 29.0523 12.781L28.9716 12.7254C28.8373 12.6191 28.6859 12.5357 28.5237 12.4788C25.235 11.8742 9.92918 9.05439 9.63057 9.09018C9.5469 9.10173 9.46692 9.13163 9.39652 9.17768L9.31985 9.23734C9.22545 9.33184 9.15374 9.446 9.11002 9.57143L9.08984 9.62313V9.90551V9.94926C10.8129 14.6782 17.6164 30.1694 18.9561 33.8046C19.0368 34.0512 19.1901 34.5205 19.4766 34.5444H19.5412C19.6945 34.5444 20.3482 33.6933 20.3482 33.6933C20.3482 33.6933 32.0344 19.7253 33.2167 18.2378C33.3698 18.0546 33.5049 17.8575 33.6202 17.6492C33.6497 17.4862 33.6358 17.3184 33.5799 17.1623C33.5241 17.0062 33.4281 16.867 33.3015 16.7583ZM23.3464 18.3849L28.334 14.3083L31.2596 16.9651L23.3464 18.3849ZM21.4095 18.1185L12.8225 11.1822L26.7159 13.7077L21.4095 18.1185ZM22.1843 19.9361L30.9731 18.5401L20.9253 30.4717L22.1843 19.9361ZM11.6563 11.8742L20.6912 19.431L19.3838 30.4797L11.6563 11.8742Z" fill="white"/>
</svg>
