<svg width="30" height="24" viewBox="0 0 30 24" fill="none" xmlns="http://www.w3.org/2000/svg">
<path d="M30 2.92246C28.8962 3.40214 27.71 3.72634 26.4649 3.87215C27.7358 3.12569 28.7116 1.94374 29.1712 0.535441C27.982 1.22652 26.6648 1.72847 25.2628 1.99901C24.14 0.826842 22.5404 0.0943604 20.7702 0.0943604C17.371 0.0943604 14.6152 2.79472 14.6152 6.1254C14.6152 6.59809 14.6697 7.05842 14.7746 7.49983C9.65928 7.24832 5.12411 4.84721 2.08845 1.19835C1.55865 2.08912 1.25513 3.12515 1.25513 4.23043C1.25513 6.32282 2.34182 8.16887 3.99331 9.25039C2.98431 9.21909 2.03533 8.9478 1.20542 8.49608C1.20498 8.52124 1.20498 8.54651 1.20498 8.57188C1.20498 11.4941 3.32657 13.9317 6.14221 14.4857C5.6257 14.6236 5.08197 14.6972 4.52057 14.6972C4.124 14.6972 3.7384 14.6595 3.36267 14.5891C4.14584 16.9852 6.41885 18.7289 9.11215 18.7776C7.00571 20.3951 4.35181 21.3593 1.46823 21.3593C0.971469 21.3593 0.48151 21.3309 0 21.2752C2.7238 22.9864 5.95907 23.9848 9.43487 23.9848C20.7558 23.9848 26.9466 14.7946 26.9466 6.82476C26.9466 6.56326 26.9406 6.30315 26.9288 6.04454C28.1312 5.19421 29.1748 4.13194 30 2.92246Z" fill="#55ACEE"/>
</svg>
