<svg width="28" height="24" viewBox="0 0 28 24" fill="none" xmlns="http://www.w3.org/2000/svg">
<path d="M2.66673 0C1.20095 0 0 1.20095 0 2.66673V21.6667C0 22.9479 1.05214 24 2.33327 24H25.6666C26.9477 24 27.9999 22.9479 27.9999 21.6667V6.33339C27.9999 5.05226 26.9477 4.00012 25.6666 4.00012H23.9999V0.666786C23.9999 0.31778 23.6823 0.000178473 23.3333 0.000178473L2.66673 0ZM2.66673 1.33321H22.6667V3.99994H2.66673C1.91661 3.99994 1.33351 3.41679 1.33351 2.66673C1.33351 1.91666 1.91666 1.33351 2.66673 1.33351V1.33321ZM1.33351 4.96857C1.72646 5.19737 2.18196 5.33315 2.66673 5.33315C10.1751 5.32641 19.2138 5.33315 25.6667 5.33315C26.2322 5.33315 26.6668 5.76773 26.6668 6.33321V9.66655H17.0001C16.0885 9.66655 15.3335 10.4215 15.3335 11.3332V16.6667C15.3335 17.5783 16.0885 18.3333 17.0001 18.3333H26.6668V21.6667C26.6668 22.2321 26.2322 22.6667 25.6667 22.6667H2.33339C1.76792 22.6667 1.33333 22.2322 1.33333 21.6667L1.33351 4.96857ZM17.0002 10.9995H26.6668V16.9995H17.0002C16.8039 16.9995 16.6668 16.8623 16.6668 16.6661V11.3326C16.6668 11.1364 16.8039 10.9992 17.0002 10.9992V10.9995ZM20.3335 12.3226C19.4209 12.3226 18.6668 13.0766 18.6668 13.9892C18.6668 14.9018 19.4209 15.6559 20.3335 15.6559C21.2461 15.6559 22.0002 14.9018 22.0002 13.9892C22.0002 13.0766 21.2461 12.3226 20.3335 12.3226ZM20.3335 13.6558C20.5256 13.6558 20.6669 13.7971 20.6669 13.9892C20.6669 14.1813 20.5256 14.3226 20.3335 14.3226C20.1415 14.3226 20.0001 14.1813 20.0001 13.9892C20.0001 13.7971 20.1415 13.6558 20.3335 13.6558Z" fill="#8AFFF7"/>
</svg>
